<?xml version="1.0" encoding="UTF-8"?><svg xmlns="http://www.w3.org/2000/svg" width="1350" height="500" viewBox="0 0 1350 500"><defs><marker id="a" markerWidth="10" markerHeight="10" refX="8" refY="3" orient="auto"><path d="M0 0L0 6L9 3z" fill="#475569"/></marker><style>.title{font:700 26px Arial;fill:#0f172a}.label{font:15px Arial;fill:#0f172a}.small{font:italic 14px Arial;fill:#475569}.edge{fill:none;stroke:#475569;stroke-width:2;marker-end:url(#a)}.box{stroke-width:2;rx:14}</style></defs><rect width="1350" height="500" fill="#fff"/><text class="title" x="675" y="42" text-anchor="middle">Notificações push — primeira versão</text><rect class="box" x="45" y="180" width="205" height="85" fill="#dbeafe" stroke="#2563eb"/><text class="label" x="147" y="214" text-anchor="middle"><tspan x="147">Backend percebe que</tspan><tspan x="147" dy="20">precisa notificar</tspan></text><rect class="box" x="360" y="180" width="245" height="85" fill="#fff7ed" stroke="#f59e0b"/><text class="label" x="482" y="214" text-anchor="middle"><tspan x="482">Firebase Cloud Messaging</tspan><tspan x="482" dy="20">envia a notificação</tspan></text><rect class="box" x="750" y="105" width="165" height="70" fill="#dcfce7" stroke="#16a34a"/><text class="label" x="832" y="146" text-anchor="middle">Android</text><rect class="box" x="750" y="280" width="165" height="70" fill="#f1f5f9" stroke="#64748b"/><text class="label" x="832" y="310" text-anchor="middle"><tspan x="832">iPhone</tspan><tspan x="832" dy="19">via APNs</tspan></text><rect class="box" x="1040" y="180" width="225" height="85" fill="#ede9fe" stroke="#7c3aed"/><text class="label" x="1152" y="214" text-anchor="middle"><tspan x="1152">Notificação aparece</tspan><tspan x="1152" dy="20">no celular</tspan></text><path class="edge" d="M250 222H355M605 205L745 140M605 240L745 315M915 140L1035 205M915 315L1035 240"/></svg>
